<svg
    xmlns="http://www.w3.org/2000/svg"
    viewBox="0 0 24 24"
    id="vector">
    <path
        id="path"
        d="M 12 4 L 12 6 C 15 6 18 9 18 12 L 20 12 C 20 8 16 4 12 4 Z M 12 0 L 12 2 C 18 2 22 6 22 12 L 24 12 C 24 5 19 0 12 0 Z M 13.5 11.9 L 14.7 10.7 C 15.1 10.3 15.1 9.7 14.7 9.3 C 14.3 8.9 13.7 8.9 13.3 9.3 L 12.1 10.5 C 9.5 8.1 6.3 6.3 2.7 5.5 L 2 5.4 L 1.6 6 C 0.6 7.8 0 9.9 0 12 C 0 18.6 5.4 24 12 24 C 14.1 24 16.2 23.4 18 22.4 L 18.6 22 L 18.4 21.3 C 17.7 17.7 15.9 14.5 13.5 11.9 Z M 12 22 C 6.5 22 2 17.5 2 12 C 2 10.5 2.3 9 3 7.7 C 9.5 9.4 14.6 14.5 16.3 21 C 15 21.7 13.5 22 12 22 Z"
        fill="#1e232d"/>
</svg>
