<svg
    xmlns="http://www.w3.org/2000/svg"
    viewBox="0 0 24 24"
    id="vector">
    <path
        id="path"
        d="M 8 2 L 16 3 L 16 22 L 8 21 Z"
        fill="#ecf0f1"/>
    <path
        id="path_1"
        d="M 2 3 L 8 2 L 8 21 L 2 22 Z"
        fill="#bdc3c7"/>
    <path
        id="path_2"
        d="M 16 3 L 22 2 L 22 21 L 16 22 Z"
        fill="#bdc3c7"/>
    <path
        id="path_3"
        d="M 3 4 L 8 3 L 8 20 L 3 21 Z"
        fill="#27ae60"/>
    <path
        id="path_4"
        d="M 8 3 L 16 4 L 16 21 L 8 20 Z"
        fill="#2ecc71"/>
    <path
        id="path_5"
        d="M 21 20 L 16 21 L 16 4 L 21 3 Z"
        fill="#27ae60"/>
    <path
        id="path_6"
        d="M 5.688 3.4 L 3.375 3.9 L 8 8.8 L 8 5.9 L 5.688 3.4 Z"
        fill="#f39c12"/>
    <path
        id="path_7"
        d="M 21 18 L 16 19 L 16 13 L 21 10 Z"
        fill="#f39c12"/>
    <path
        id="path_8"
        d="M 21 20 L 16 21 L 16 15 L 21 12 Z"
        fill="#2980b9"/>
    <path
        id="path_9"
        d="M 8 14 L 16 13 L 16 19 L 8 18 Z"
        fill="#f1c40f"/>
    <path
        id="path_10"
        d="M 8 16 L 16 15 L 16 21 L 8 20 Z"
        fill="#3498db"/>
    <path
        id="path_11"
        d="M 3 17 L 8 14 L 8 18 L 3 19 Z"
        fill="#f39c12"/>
    <path
        id="path_12"
        d="M 3 19 L 8 16 L 8 20 L 3 21 Z"
        fill="#2980b9"/>
    <path
        id="path_13"
        d="M 8 8.801 L 8 5.902 L 12 14.562 L 10.531 14.562 Z"
        fill="#f1c40f"/>
</svg>
