<svg width="1125" height="2436" enable-background="new 0 0 512 512" version="1.1" viewBox="0 0 1125 2436" xmlns="http://www.w3.org/2000/svg">
 <g transform="matrix(1.6657 0 0 1.6696 -209.88 253.29)" clip-rule="evenodd" fill-rule="evenodd">
  <g transform="matrix(1.75 0 0 1.75 101.39 128)">
   <path d="m256.22 287.96c78.923 0 143.78-64.845 143.78-143.75 0-79.367-64.858-144.21-143.78-144.21-79.36 0-144.22 64.845-144.22 144.21 0 78.906 64.859 143.75 144.22 143.75z" fill="#db524d"/>
   <path d="m320.17 108.84c17.234 0 31.751-14.514 31.751-32.199s-14.517-31.747-31.751-31.747c-17.688 0-32.203 14.062-32.203 31.747s14.515 32.199 32.203 32.199z" fill="#ee706c"/>
   <path d="m272.09 496.13v-208.16-0.906c-5.438 0.453-10.874 0.906-15.875 0.906-5.438 0-10.875-0.453-16.32-0.906v0.906 208.16c0 8.608 7.258 15.873 16.32 15.873 8.625 0 15.875-7.265 15.875-15.873z" fill="#2f4a59"/>
   <path d="m239.9 287.96v31.293l32.195-32.199c-5.438 0.453-10.874 0.906-15.875 0.906-5.438 0-10.875-0.453-16.32-0.906v0.906z" fill="#0f2635"/>
   <path d="m273.92 252.15c-69.398 0-125.64-56.689-125.64-126.07 0-66.665 51.703-121.09 117.02-125.62-3.171-0.453-5.891-0.453-9.078-0.453-79.813 0-144.22 64.392-144.22 144.21 0 79.359 64.406 143.75 144.22 143.75 79.376 0 143.78-64.392 143.78-143.75 0-3.179 0-6.351-0.453-9.522-4.078 65.75-58.954 117.46-125.62 117.46z" fill="#be3530"/>
  </g>
  <g transform="matrix(1.4197 -.44158 .55324 .72026 -97.669 752.69)" fill-opacity=".56418">
   <path d="m256.22 287.96c78.923 0 143.78-64.845 143.78-143.75 0-79.367-64.858-144.21-143.78-144.21-79.36 0-144.22 64.845-144.22 144.21 0 78.906 64.859 143.75 144.22 143.75z"/>
   <path d="m320.17 108.84c17.234 0 31.751-14.514 31.751-32.199s-14.517-31.747-31.751-31.747c-17.688 0-32.203 14.062-32.203 31.747s14.515 32.199 32.203 32.199z"/>
   <path d="m272.09 496.13v-208.16-0.906c-5.438 0.453-10.874 0.906-15.875 0.906-5.438 0-10.875-0.453-16.32-0.906v0.906 208.16c0 8.608 7.258 15.873 16.32 15.873 8.625 0 15.875-7.265 15.875-15.873z"/>
   <path d="m239.9 287.96v31.293l32.195-32.199c-5.438 0.453-10.874 0.906-15.875 0.906-5.438 0-10.875-0.453-16.32-0.906v0.906z"/>
   <path d="m273.92 252.15c-69.398 0-125.64-56.689-125.64-126.07 0-66.665 51.703-121.09 117.02-125.62-3.171-0.453-5.891-0.453-9.078-0.453-79.813 0-144.22 64.392-144.22 144.21 0 79.359 64.406 143.75 144.22 143.75 79.376 0 143.78-64.392 143.78-143.75 0-3.179 0-6.351-0.453-9.522-4.078 65.75-58.954 117.46-125.62 117.46z"/>
  </g>
 </g>
</svg>
