<svg
    xmlns="http://www.w3.org/2000/svg"
    viewBox="0 0 512 512"
    id="vector">
    <path
        id="path"
        d="M 256.22 287.96 C 335.143 287.96 400 223.115 400 144.21 C 400 64.843 335.142 0 256.22 0 C 176.86 0 112 64.845 112 144.21 C 112 223.116 176.859 287.96 256.22 287.96 Z"
        fill="#db524d"/>
    <path
        id="path_1"
        d="M 320.17 108.84 C 337.404 108.84 351.921 94.326 351.921 76.641 C 351.921 58.956 337.404 44.894 320.17 44.894 C 302.482 44.894 287.967 58.956 287.967 76.641 C 287.967 94.326 302.482 108.84 320.17 108.84 Z"
        fill="#ee706c"/>
    <path
        id="path_2"
        d="M 272.09 496.13 L 272.09 287.97 L 272.09 287.064 C 266.652 287.517 261.216 287.97 256.215 287.97 C 250.777 287.97 245.34 287.517 239.895 287.064 L 239.895 287.97 L 239.895 496.13 C 239.895 504.738 247.153 512.003 256.215 512.003 C 264.84 512.003 272.09 504.738 272.09 496.13 Z"
        fill="#2f4a59"/>
    <path
        id="path_3"
        d="M 239.9 287.96 L 239.9 319.253 L 272.095 287.054 C 266.657 287.507 261.221 287.96 256.22 287.96 C 250.782 287.96 245.345 287.507 239.9 287.054 L 239.9 287.96 Z"
        fill="#0f2635"/>
    <path
        id="path_4"
        d="M 273.92 252.15 C 204.522 252.15 148.28 195.461 148.28 126.08 C 148.28 59.415 199.983 4.99 265.3 0.46 C 262.129 0.007 259.409 0.007 256.222 0.007 C 176.409 0.007 112.002 64.399 112.002 144.217 C 112.002 223.576 176.408 287.967 256.222 287.967 C 335.598 287.967 400.002 223.575 400.002 144.217 C 400.002 141.038 400.002 137.866 399.549 134.695 C 395.471 200.445 340.595 252.155 273.929 252.155 Z"
        fill="#be3530"/>
</svg>
