<?xml version="1.0" encoding="UTF-8" standalone="no"?>
<svg
   xmlns:dc="http://purl.org/dc/elements/1.1/"
   xmlns:cc="http://creativecommons.org/ns#"
   xmlns:rdf="http://www.w3.org/1999/02/22-rdf-syntax-ns#"
   xmlns:svg="http://www.w3.org/2000/svg"
   xmlns="http://www.w3.org/2000/svg"
   xmlns:sodipodi="http://sodipodi.sourceforge.net/DTD/sodipodi-0.dtd"
   xmlns:inkscape="http://www.inkscape.org/namespaces/inkscape"
   viewBox="0 0 512 512"
   id="vector"
   version="1.1"
   sodipodi:docname="pin.svg"
   inkscape:export-filename="/Volumes/HD/Users/dsa/MyProjects/way-today-ios/Way.Today/Way.Today/Assets.xcassets/pin.imageset/pin@x3.png"
   inkscape:export-xdpi="24.75"
   inkscape:export-ydpi="24.75"
   inkscape:version="0.92.2 5c3e80d, 2017-08-06">
  <metadata
     id="metadata9">
    <rdf:RDF>
      <cc:Work
         rdf:about="">
        <dc:format>image/svg+xml</dc:format>
        <dc:type
           rdf:resource="http://purl.org/dc/dcmitype/StillImage" />
      </cc:Work>
    </rdf:RDF>
  </metadata>
  <defs
     id="defs7" />
  <sodipodi:namedview
     pagecolor="#ffffff"
     bordercolor="#666666"
     borderopacity="1"
     objecttolerance="10"
     gridtolerance="10"
     guidetolerance="10"
     inkscape:pageopacity="0"
     inkscape:pageshadow="2"
     inkscape:window-width="1114"
     inkscape:window-height="730"
     id="namedview5"
     showgrid="false"
     inkscape:zoom="0.4609375"
     inkscape:cx="-26.033898"
     inkscape:cy="256"
     inkscape:window-x="76"
     inkscape:window-y="12"
     inkscape:window-maximized="0"
     inkscape:current-layer="vector" />
  <path
     id="path"
     d="M 279.895 496.13 L 279.895 287.97 L 279.895 287.064 C 273.139 287.517 266.385 287.97 260.171 287.97 C 253.415 287.97 246.66 287.517 239.895 287.064 L 239.895 287.97 L 239.895 496.13 C 239.895 504.738 248.913 512.003 260.171 512.003 C 270.887 512.003 279.895 504.738 279.895 496.13 Z"
     fill="#000000"
     stroke="#00000000"
     stroke-width="1.11464298"
     fill-rule="evenodd" />
  <path
     id="path_1"
     d="M 256.22 307.485 C 335.143 307.485 400 242.64 400 163.735 C 400 84.368 335.142 19.525 256.22 19.525 C 176.86 19.525 112 84.37 112 163.735 C 112 242.641 176.859 307.485 256.22 307.485 Z"
     fill="#00000000"
     stroke="#000000"
     stroke-width="40"
     fill-rule="evenodd"
     style="fill:none" />
</svg>
