<?xml version="1.0" encoding="UTF-8" standalone="no"?>
<svg
   xmlns:dc="http://purl.org/dc/elements/1.1/"
   xmlns:cc="http://creativecommons.org/ns#"
   xmlns:rdf="http://www.w3.org/1999/02/22-rdf-syntax-ns#"
   xmlns:svg="http://www.w3.org/2000/svg"
   xmlns="http://www.w3.org/2000/svg"
   xmlns:sodipodi="http://sodipodi.sourceforge.net/DTD/sodipodi-0.dtd"
   xmlns:inkscape="http://www.inkscape.org/namespaces/inkscape"
   enable-background="new 0 0 512 512"
   height="1024"
   id="Layer_1"
   version="1.1"
   viewBox="0 0 1024 1024"
   width="1024"
   xml:space="preserve"
   inkscape:version="0.92.2 5c3e80d, 2017-08-06"
   sodipodi:docname="pin1024.svg"><metadata
     id="metadata19"><rdf:RDF><cc:Work
         rdf:about=""><dc:format>image/svg+xml</dc:format><dc:type
           rdf:resource="http://purl.org/dc/dcmitype/StillImage" /><dc:title></dc:title></cc:Work></rdf:RDF></metadata><defs
     id="defs17" /><sodipodi:namedview
     pagecolor="#ffffff"
     bordercolor="#666666"
     borderopacity="1"
     objecttolerance="10"
     gridtolerance="10"
     guidetolerance="10"
     inkscape:pageopacity="0"
     inkscape:pageshadow="2"
     inkscape:window-width="1168"
     inkscape:window-height="756"
     id="namedview15"
     showgrid="false"
     inkscape:zoom="0.32593203"
     inkscape:cx="617.59475"
     inkscape:cy="256"
     inkscape:window-x="66"
     inkscape:window-y="2"
     inkscape:window-maximized="0"
     inkscape:current-layer="Layer_1"
     inkscape:pagecheckerboard="false" /><rect
     style="opacity:0.95999995;fill:#40c1c7;fill-opacity:1;stroke:#00f900;stroke-width:0;stroke-linecap:square;stroke-miterlimit:4;stroke-dasharray:none;stroke-opacity:0"
     id="rect856"
     width="1024"
     height="1024"
     x="5.2021477e-07"
     y="1.0202148e-06" /><g
     id="g854"
     transform="matrix(0.99794228,0,0,1,49.259276,-64)"><g
       style="opacity:1"
       transform="matrix(1.75,0,0,1.75,101.38976,128)"
       id="g3"><path
         style="clip-rule:evenodd;fill:#db524d;fill-rule:evenodd"
         inkscape:connector-curvature="0"
         id="path5"
         d="M 256.219,287.962 C 335.142,287.962 400,223.117 400,144.212 400,64.845 335.142,0 256.219,0 176.859,0 112,64.845 112,144.211 c 0,78.906 64.859,143.751 144.219,143.751 z" /><path
         style="clip-rule:evenodd;fill:#ee706c;fill-rule:evenodd"
         inkscape:connector-curvature="0"
         id="path7"
         d="m 320.172,108.84 c 17.234,0 31.751,-14.514 31.751,-32.199 0,-17.685 -14.517,-31.747 -31.751,-31.747 -17.688,0 -32.203,14.062 -32.203,31.747 0,17.685 14.515,32.199 32.203,32.199 z" /><path
         style="clip-rule:evenodd;fill:#2f4a59;fill-rule:evenodd"
         inkscape:connector-curvature="0"
         id="path9"
         d="M 272.094,496.127 V 287.962 c 0,-0.453 0,-0.453 0,-0.906 -5.438,0.453 -10.874,0.906 -15.875,0.906 -5.438,0 -10.875,-0.453 -16.32,-0.906 0,0.453 0,0.453 0,0.906 v 208.165 c 0,8.608 7.258,15.873 16.32,15.873 8.625,0 15.875,-7.265 15.875,-15.873 z" /><path
         style="clip-rule:evenodd;fill:#0f2635;fill-rule:evenodd"
         inkscape:connector-curvature="0"
         id="path11"
         d="m 239.898,287.962 v 31.293 l 32.195,-32.199 c -5.438,0.453 -10.874,0.906 -15.875,0.906 -5.438,0 -10.875,-0.453 -16.32,-0.906 0,0.453 0,0.453 0,0.906 z" /><path
         style="clip-rule:evenodd;fill:#be3530;fill-rule:evenodd"
         inkscape:connector-curvature="0"
         id="path13"
         d="m 273.922,252.146 c -69.398,0 -125.641,-56.689 -125.641,-126.073 0,-66.665 51.703,-121.088 117.016,-125.62 C 262.126,0 259.406,0 256.219,0 176.406,0 112,64.392 112,144.211 c 0,79.359 64.406,143.75 144.219,143.75 79.376,0 143.781,-64.392 143.781,-143.75 0,-3.179 0,-6.351 -0.453,-9.522 -4.078,65.75 -58.954,117.457 -125.625,117.457 z" /></g><g
       style="fill:#000000;fill-opacity:0.56417913"
       id="g4773"
       transform="matrix(1.4197153,-0.44158135,0.5532371,0.7202563,-97.668856,752.6888)"><path
         d="M 256.219,287.962 C 335.142,287.962 400,223.117 400,144.212 400,64.845 335.142,0 256.219,0 176.859,0 112,64.845 112,144.211 c 0,78.906 64.859,143.751 144.219,143.751 z"
         id="path4775"
         inkscape:connector-curvature="0"
         style="clip-rule:evenodd;fill:#000000;fill-opacity:0.56417913;fill-rule:evenodd" /><path
         d="m 320.172,108.84 c 17.234,0 31.751,-14.514 31.751,-32.199 0,-17.685 -14.517,-31.747 -31.751,-31.747 -17.688,0 -32.203,14.062 -32.203,31.747 0,17.685 14.515,32.199 32.203,32.199 z"
         id="path4777"
         inkscape:connector-curvature="0"
         style="clip-rule:evenodd;fill:#000000;fill-opacity:0.56417913;fill-rule:evenodd" /><path
         d="M 272.094,496.127 V 287.962 c 0,-0.453 0,-0.453 0,-0.906 -5.438,0.453 -10.874,0.906 -15.875,0.906 -5.438,0 -10.875,-0.453 -16.32,-0.906 0,0.453 0,0.453 0,0.906 v 208.165 c 0,8.608 7.258,15.873 16.32,15.873 8.625,0 15.875,-7.265 15.875,-15.873 z"
         id="path4779"
         inkscape:connector-curvature="0"
         style="clip-rule:evenodd;fill:#000000;fill-opacity:0.56417913;fill-rule:evenodd" /><path
         d="m 239.898,287.962 v 31.293 l 32.195,-32.199 c -5.438,0.453 -10.874,0.906 -15.875,0.906 -5.438,0 -10.875,-0.453 -16.32,-0.906 0,0.453 0,0.453 0,0.906 z"
         id="path4781"
         inkscape:connector-curvature="0"
         style="clip-rule:evenodd;fill:#000000;fill-opacity:0.56417913;fill-rule:evenodd" /><path
         d="m 273.922,252.146 c -69.398,0 -125.641,-56.689 -125.641,-126.073 0,-66.665 51.703,-121.088 117.016,-125.62 C 262.126,0 259.406,0 256.219,0 176.406,0 112,64.392 112,144.211 c 0,79.359 64.406,143.75 144.219,143.75 79.376,0 143.781,-64.392 143.781,-143.75 0,-3.179 0,-6.351 -0.453,-9.522 -4.078,65.75 -58.954,117.457 -125.625,117.457 z"
         id="path4783"
         inkscape:connector-curvature="0"
         style="clip-rule:evenodd;fill:#000000;fill-opacity:0.56417913;fill-rule:evenodd" /></g></g></svg>