<svg
    xmlns="http://www.w3.org/2000/svg"
    viewBox="0 0 99 99"
    id="vector">
    <path
        id="path"
        d="M 20 0 C 8.92 0 0 8.92 0 20 L 0 80 C 0 91.08 8.92 100 20 100 L 80 100 C 91.08 100 100 91.08 100 80 L 100 20 C 100 8.92 91.08 0 80 0 L 20 0 Z M 48.637 14.227 C 60.889 14.227 71.637 20.789 77.584 30.572 L 84.607 26.307 L 84.978 49.836 L 64.221 38.688 L 71.678 34.16 C 66.969 26.369 58.437 21.168 48.637 21.168 C 37.185 21.168 27.449 28.193 23.543 38.234 C 23.456 38.502 23.398 38.769 23.26 39.082 C 22.297 41.222 20.09 42.319 18.33 41.531 C 17.177 41.013 16.456 39.776 16.447 38.299 C 16.463 37.594 16.725 36.756 17.039 35.928 C 21.942 23.251 34.259 14.227 48.637 14.227 Z M 15.021 50.164 L 35.779 61.313 L 28.322 65.84 C 33.031 73.631 41.563 78.832 51.363 78.832 C 62.815 78.832 72.551 71.807 76.457 61.766 C 76.544 61.498 76.603 61.231 76.74 60.918 C 77.704 58.778 79.91 57.681 81.67 58.469 C 82.823 58.987 83.543 60.224 83.553 61.701 C 83.537 62.406 83.275 63.244 82.961 64.072 C 78.058 76.749 65.741 85.773 51.363 85.773 C 39.111 85.773 28.363 79.211 22.416 69.428 L 15.393 73.693 L 15.021 50.164 Z"
        fill="#222222"
        stroke="#00000000"
        stroke-width="3.79999995"
        stroke-linecap="round"
        stroke-linejoin="round"/>
</svg>
