<svg
    xmlns="http://www.w3.org/2000/svg"
    viewBox="0 0 24 24"
    id="vector">
    <path
        id="path"
        d="M 15.985 18.857 L 4.557 12 L 15.985 5.143 L 17.015 6.857 L 8.443 12 L 17.015 17.143 L 15.985 18.857 Z"
        fill="#4286c9"/>
    <path
        id="path_1"
        d="M 16.5 6.5 M 13 6.5 C 13 5.572 13.369 4.681 14.025 4.025 C 14.681 3.369 15.572 3 16.5 3 C 17.428 3 18.319 3.369 18.975 4.025 C 19.631 4.681 20 5.572 20 6.5 C 20 7.428 19.631 8.319 18.975 8.975 C 18.319 9.631 17.428 10 16.5 10 C 15.572 10 14.681 9.631 14.025 8.975 C 13.369 8.319 13 7.428 13 6.5"
        fill="#4c9ae8"/>
    <path
        id="path_2"
        d="M 6.5 12 M 3 12 C 3 11.072 3.369 10.181 4.025 9.525 C 4.681 8.869 5.572 8.5 6.5 8.5 C 7.428 8.5 8.319 8.869 8.975 9.525 C 9.631 10.181 10 11.072 10 12 C 10 12.928 9.631 13.819 8.975 14.475 C 8.319 15.131 7.428 15.5 6.5 15.5 C 5.572 15.5 4.681 15.131 4.025 14.475 C 3.369 13.819 3 12.928 3 12"
        fill="#4c9ae8"/>
    <path
        id="path_3"
        d="M 16.5 17.5 M 13 17.5 C 13 16.572 13.369 15.681 14.025 15.025 C 14.681 14.369 15.572 14 16.5 14 C 17.428 14 18.319 14.369 18.975 15.025 C 19.631 15.681 20 16.572 20 17.5 C 20 18.428 19.631 19.319 18.975 19.975 C 18.319 20.631 17.428 21 16.5 21 C 15.572 21 14.681 20.631 14.025 19.975 C 13.369 19.319 13 18.428 13 17.5"
        fill="#4c9ae8"/>
</svg>
