<svg
    xmlns="http://www.w3.org/2000/svg"
    viewBox="0 0 24 24"
    id="vector">
    <path
        id="path"
        d="M 11.607 17.998 C 9.953 17.998 8.607 19.343 8.607 20.998 C 8.607 22.652 9.953 23.998 11.607 23.998 C 13.261 23.998 14.607 22.652 14.607 20.998 C 14.607 19.343 13.262 17.998 11.607 17.998 Z M 11.607 21.998 C 11.056 21.998 10.607 21.549 10.607 20.998 C 10.607 20.446 11.056 19.998 11.607 19.998 C 12.159 19.998 12.607 20.446 12.607 20.998 C 12.607 21.549 12.159 21.998 11.607 21.998 Z"
        fill="#000000"/>
    <path
        id="path_1"
        d="M 5.951 15.341 L 7.366 16.755 C 8.498 15.621 10.005 14.998 11.607 14.998 C 13.21 14.998 14.716 15.622 15.849 16.755 L 17.263 15.341 C 15.752 13.83 13.743 12.998 11.607 12.998 C 9.471 12.998 7.462 13.83 5.951 15.341 Z"
        fill="#000000"/>
    <path
        id="path_2"
        d="M 3.122 12.512 L 4.536 13.925 C 8.435 10.027 14.779 10.027 18.678 13.926 L 20.092 12.512 C 15.413 7.833 7.801 7.834 3.122 12.512 Z"
        fill="#000000"/>
    <path
        id="path_3"
        d="M 12 7.016 L 12 5.016 C 11.868 5.013 11.739 4.996 11.606 4.996 C 7.333 4.996 3.314 6.661 0.293 9.684 L 1.707 11.098 C 4.352 8.453 7.867 6.996 11.606 6.996 C 11.739 6.996 11.868 7.012 12 7.016 Z"
        fill="#000000"/>
    <path
        id="path_4"
        d="M 19 0.581 L 14.293 5.29 L 15.707 6.703 L 18 4.411 L 18 9.998 L 20 9.998 L 20 4.411 L 22.293 6.703 L 23.707 5.29 Z"
        fill="#000000"/>
</svg>
