<svg
    xmlns="http://www.w3.org/2000/svg"
    viewBox="0 0 24 24"
    id="vector">
    <path
        id="path"
        d="M 16.5 12 C 16.5 10.23 15.48 8.71 14 7.97 L 14 10.18 L 16.45 12.63 C 16.48 12.43 16.5 12.22 16.5 12 Z M 19 12 C 19 12.94 18.8 13.82 18.46 14.64 L 19.97 16.15 C 20.63 14.91 21 13.5 21 12 C 21 7.72 18.01 4.14 14 3.23 L 14 5.29 C 16.89 6.15 19 8.83 19 12 Z M 4.27 3 L 3 4.27 L 7.73 9 L 3 9 L 3 15 L 7 15 L 12 20 L 12 13.27 L 16.25 17.52 C 15.58 18.04 14.83 18.45 14 18.7 L 14 20.76 C 15.38 20.45 16.63 19.81 17.69 18.95 L 19.73 21 L 21 19.73 L 12 10.73 L 4.27 3 Z M 12 4 L 9.91 6.09 L 12 8.18 L 12 4 Z"
        fill="#000000"/>
</svg>
